<svg xmlns="http://www.w3.org/2000/svg" width="15.135" height="15.13" viewBox="0 0 15.135 15.13">
  <path id="close_1_" data-name="close (1)" d="M10.065,7.566l4.682-4.681a1.323,1.323,0,0,0,0-1.872L14.123.389a1.324,1.324,0,0,0-1.873,0L7.568,5.069,2.886.388a1.324,1.324,0,0,0-1.873,0l-.625.624a1.323,1.323,0,0,0,0,1.872L5.071,7.566.389,12.246a1.323,1.323,0,0,0,0,1.872l.624.624a1.324,1.324,0,0,0,1.873,0l4.682-4.681,4.682,4.681a1.324,1.324,0,0,0,1.873,0l.624-.624a1.323,1.323,0,0,0,0-1.872Zm0,0" transform="translate(0 0)" fill="red"/>
</svg>
