<svg xmlns="http://www.w3.org/2000/svg" width="15" height="15.896" viewBox="0 0 15 15.896">
  <path id="delivery-time-tool" d="M14.59,4.181l-.477.477a6.828,6.828,0,1,1-12,5.119H1.443a.529.529,0,0,1-.461-.795L2.476,6.375a.536.536,0,0,1,.922,0L4.893,8.982a.527.527,0,0,1-.445.795H3.859a5.079,5.079,0,1,0,2.226-4.96.907.907,0,0,1-1.208-.159A.879.879,0,0,1,5.083,3.4,6.708,6.708,0,0,1,8.056,2.289V1.3h-.7A.427.427,0,0,1,6.928.874V.429A.427.427,0,0,1,7.357,0h3.227a.427.427,0,0,1,.429.429V.874a.427.427,0,0,1-.429.429H9.821v1a6.687,6.687,0,0,1,3.593,1.637l.429-.445-.318-.3a.432.432,0,0,1-.016-.62l.334-.366a.448.448,0,0,1,.62-.032l1.3,1.208a.448.448,0,0,1,.032.62l-.35.366a.447.447,0,0,1-.62.032l-.238-.223ZM9.853,8.156a1.372,1.372,0,0,0-2.13.223,1.343,1.343,0,0,0,0,1.51,1.366,1.366,0,0,0,1.59.541l1.733,1.415a.356.356,0,0,0,.509-.493L10.155,9.6a1.4,1.4,0,0,0-.3-1.447Z" transform="translate(-0.908)"/>
</svg>
